<svg id="Layer_1" xmlns="http://www.w3.org/2000/svg" viewBox="0 0 485 485"><path d="M180.307 324.385c0 12.542 1.787 23.327 5.453 32.446 2.604 7.209 8.028 14.298 16.207 21.66 6.272 6.271 15.268 11.694 26.993 16.207 14.42 3.545 26.962 5.302 37.868 5.302 12.662 0 24.356-1.303 35.141-3.999 12.664-2.726 24.843-7.24 36.565-13.511v-50.046c-16.207 10.876-32.081 16.208-47.349 16.208-7.21 0-15.267-2.241-24.356-6.634-5.333-3.666-8.543-7.695-9.483-12.179-2.726-5.453-4.362-17.147-4.362-35.262v-79.765h72.767V166.31h-72.767V85h-42.957c-3.575 18.935-7.241 32.415-10.785 40.594-4.483 9.938-11.723 18.934-21.66 26.962-9.937 8.18-20.236 13.966-31.111 17.661v44.595h33.839v109.573z"/><path d="M0 0v485h485V0H0zm455 455H30V30h425v425z"/></svg>