<svg id="Layer_1" xmlns="http://www.w3.org/2000/svg" viewBox="0 0 485 485"><style>.st0{fill:#fff}</style><path d="M0 0h485v485H0z"/><path class="st0" d="M180.3 324.4c0 12.5 1.8 23.3 5.5 32.4 2.6 7.2 8 14.3 16.2 21.7 6.3 6.3 15.3 11.7 27 16.2 14.4 3.5 27 5.3 37.9 5.3 12.7 0 24.4-1.3 35.1-4 12.7-2.7 24.8-7.2 36.6-13.5v-50c-16.2 10.9-32.1 16.2-47.3 16.2-7.2 0-15.3-2.2-24.4-6.6-5.3-3.7-8.5-7.7-9.5-12.2-2.7-5.5-4.4-17.1-4.4-35.3v-79.8h72.8v-48.5H253V85h-43c-3.6 18.9-7.2 32.4-10.8 40.6-4.5 9.9-11.7 18.9-21.7 27-9.9 8.2-20.2 14-31.1 17.7v44.6h33.8l.1 109.5z"/></svg>