<?xml version="1.0" standalone="no"?>
<!DOCTYPE svg PUBLIC "-//W3C//DTD SVG 20010904//EN"
 "http://www.w3.org/TR/2001/REC-SVG-20010904/DTD/svg10.dtd">
<svg version="1.0" xmlns="http://www.w3.org/2000/svg"
 width="300.000000pt" height="300.000000pt" viewBox="0 0 300.000000 300.000000"
 preserveAspectRatio="xMidYMid meet">
<metadata>
Created by potrace 1.11, written by Peter Selinger 2001-2013
</metadata>
<g transform="translate(0.000000,300.000000) scale(0.100000,-0.100000)"
fill="#000000" stroke="none">
<path d="M81 2920 c-9 -7 -9 -2833 0 -2840 7 -5 2822 -6 2839 -1 7 1 7 2841 0
2842 -16 5 -2832 4 -2839 -1z m937 -543 l2 -397 -397 0 -398 0 1 388 c1 213 2
392 3 397 1 6 139 10 394 10 l392 0 3 -398z m900 0 l2 -397 -420 0 -420 0 0
393 c0 217 2 396 4 398 3 2 190 4 418 4 l413 0 3 -398z m852 392 c3 -4 5 -182
5 -396 l0 -388 -398 -3 -397 -2 0 393 c0 217 2 396 4 398 7 7 781 5 786 -2z
m-1750 -1269 l0 -420 -398 0 -397 0 1 418 c1 229 2 418 3 420 0 1 179 2 396 2
l395 0 0 -420z m900 0 l0 -420 -420 0 -420 0 0 420 0 420 420 0 420 0 0 -420z
m855 0 l0 -415 -398 -3 -397 -2 0 420 0 420 397 -2 398 -3 0 -415z m-1757
-877 l-3 -397 -375 -1 c-206 0 -384 1 -395 3 -20 3 -20 10 -20 398 l0 394 398
0 397 0 -2 -397z m900 0 l-3 -397 -418 -1 -417 0 0 398 0 397 420 0 420 0 -2
-397z m856 10 c-1 -214 -2 -393 -3 -398 -1 -7 -137 -10 -393 -10 l-393 0 -3
398 -2 397 397 0 398 0 -1 -387z"/>
<path d="M588 2499 c-57 -9 -68 -15 -68 -38 0 -23 10 -33 24 -22 19 14 75 21
100 11 13 -5 28 -22 34 -38 l10 -29 -49 -6 c-67 -8 -117 -34 -135 -70 -32 -62
10 -136 79 -139 40 -1 97 19 98 36 0 6 4 1 9 -11 6 -15 18 -23 34 -23 l24 0
-3 113 c-2 61 -3 122 -4 134 -1 30 -40 72 -76 81 -16 5 -51 5 -77 1z m88 -167
c17 -12 10 -71 -11 -91 -32 -32 -70 -36 -95 -11 -15 15 -19 28 -14 43 11 39
35 54 104 66 3 0 10 -3 16 -7z"/>
<path d="M1358 2418 c-2 -126 -1 -233 0 -238 2 -6 15 -10 28 -10 17 0 24 6 24
20 0 11 3 20 6 20 3 0 17 -9 31 -20 57 -45 164 -15 197 55 58 122 -6 259 -121
258 -28 0 -83 -23 -83 -34 0 -5 -4 -9 -10 -9 -6 0 -10 38 -10 93 l0 92 -30 0
-29 1 -3 -228z m212 7 c27 -28 39 -79 29 -124 -17 -81 -103 -110 -155 -53 -23
24 -26 33 -22 89 3 48 9 68 27 87 38 40 84 40 121 1z"/>
<path d="M2435 2502 c-95 -9 -159 -80 -156 -173 1 -80 42 -140 106 -155 38 -9
50 -10 102 -1 37 6 42 10 39 30 -2 15 -10 21 -22 20 -84 -12 -120 0 -148 48
-33 56 -9 147 45 169 16 7 49 10 74 8 38 -5 45 -3 51 14 3 11 4 22 1 24 -9 10
-63 19 -92 16z"/>
<path d="M709 1726 c-1 -28 0 -68 1 -88 2 -42 -1 -44 -33 -24 -67 43 -166 4
-196 -77 -16 -42 -13 -124 5 -163 35 -73 128 -101 191 -56 37 26 45 27 41 5
-2 -12 5 -18 24 -19 l27 -3 0 235 c1 129 -2 235 -7 235 -51 9 -52 8 -53 -45z
m-31 -166 c32 -30 41 -114 18 -171 -9 -22 -48 -41 -81 -41 -85 0 -116 165 -41
217 29 21 78 19 104 -5z"/>
<path d="M1433 1610 c-87 -53 -98 -217 -19 -281 33 -27 94 -39 149 -29 61 12
66 16 60 40 -4 16 -11 18 -32 13 -14 -4 -46 -7 -70 -6 -37 0 -49 6 -73 32 -15
17 -28 40 -28 51 0 19 7 20 109 20 l109 0 4 29 c7 49 -26 117 -69 139 -34 18
-104 14 -140 -8z m114 -35 c11 -8 26 -28 31 -45 l11 -30 -85 0 c-84 0 -85 0
-78 23 17 58 76 83 121 52z"/>
<path d="M2370 1753 c-24 -21 -33 -40 -38 -78 -6 -43 -10 -50 -30 -49 -32 2
-31 -42 2 -50 23 -6 23 -9 24 -113 0 -176 -2 -165 30 -161 l27 3 3 136 3 136
31 1 c37 1 51 13 42 35 -4 12 -15 15 -40 12 -33 -4 -34 -3 -34 28 0 48 24 77
66 77 30 0 34 3 34 25 0 23 -4 25 -45 25 -35 0 -52 -6 -75 -27z"/>
<path d="M542 740 c-19 -12 -41 -38 -52 -63 -66 -145 48 -292 175 -227 21 11
41 18 43 15 10 -10 -22 -97 -40 -106 -30 -16 -90 -18 -125 -4 -30 13 -33 12
-39 -7 -3 -11 -2 -24 3 -29 30 -30 145 -31 193 -3 58 35 65 62 68 260 l4 182
-26 0 c-24 0 -31 -9 -27 -32 1 -4 -14 1 -32 13 -43 27 -102 27 -145 1z m136
-50 c28 -26 36 -58 28 -117 -9 -80 -66 -112 -133 -75 -41 23 -55 126 -22 170
36 47 89 57 127 22z"/>
<path d="M1367 896 c-2 -6 -3 -112 -3 -236 l1 -225 30 0 30 0 1 105 c0 109 9
141 44 160 28 15 55 12 81 -9 22 -18 24 -27 26 -128 1 -59 2 -114 2 -120 1 -8
14 -13 31 -13 l30 0 0 118 c0 130 -14 176 -60 199 -41 21 -95 16 -127 -11
l-29 -25 1 95 c2 52 0 95 -4 95 -30 6 -51 4 -54 -5z"/>
<path d="M2370 861 c-15 -29 -2 -51 30 -51 20 0 31 6 35 20 14 43 -44 69 -65
31z"/>
<path d="M2370 593 l0 -164 32 3 31 3 0 135 c-2 202 1 185 -33 186 l-30 2 0
-165z"/>
</g>
</svg>
