<?xml version="1.0" encoding="utf-8"?>
<!-- Generator: Adobe Illustrator 15.0.0, SVG Export Plug-In . SVG Version: 6.00 Build 0)  -->
<!DOCTYPE svg PUBLIC "-//W3C//DTD SVG 1.1//EN" "http://www.w3.org/Graphics/SVG/1.1/DTD/svg11.dtd">
<svg version="1.1" id="Layer_1" xmlns="http://www.w3.org/2000/svg" xmlns:xlink="http://www.w3.org/1999/xlink" x="0px" y="0px"
	 width="100px" height="100px" viewBox="0 0 100 100" enable-background="new 0 0 100 100" xml:space="preserve">
<g>
	<g>
		<path fill="#FFFFFF" d="M97.5,97.5h-95v-95h95V97.5z M7.5,92.5h85v-85h-85V92.5z"/>
	</g>
	<g>
		<g>
			<g>
				<path fill="#FFFFFF" d="M36,36H4V4h32V36z M6,34h28V6H6V34z"/>
			</g>
			<g>
				<path fill="#FFFFFF" d="M66,36H34V4h32V36z M36,34h28V6H36V34z"/>
			</g>
			<g>
				<path fill="#FFFFFF" d="M96,36H64V4h32V36z M66,34h28V6H66V34z"/>
			</g>
		</g>
		<g>
			<g>
				<path fill="#FFFFFF" d="M36,66H4V34h32V66z M6,64h28V36H6V64z"/>
			</g>
			<g>
				<path fill="#FFFFFF" d="M66,66H34V34h32V66z M36,64h28V36H36V64z"/>
			</g>
			<g>
				<path fill="#FFFFFF" d="M96,66H64V34h32V66z M66,64h28V36H66V64z"/>
			</g>
		</g>
		<g>
			<g>
				<path fill="#FFFFFF" d="M36,96H4V64h32V96z M6,94h28V66H6V94z"/>
			</g>
			<g>
				<path fill="#FFFFFF" d="M66,96H34V64h32V96z M36,94h28V66H36V94z"/>
			</g>
			<g>
				<path fill="#FFFFFF" d="M96,96H64V64h32V96z M66,94h28V66H66V94z"/>
			</g>
		</g>
	</g>
	<g>
		<path fill="#FFFFFF" d="M24.786,24.949c0,0.924,0.044,1.826,0.154,2.552h-1.738l-0.154-1.342h-0.065
			c-0.595,0.836-1.738,1.584-3.257,1.584c-2.156,0-3.256-1.519-3.256-3.059c0-2.574,2.288-3.982,6.402-3.96v-0.22
			c0-0.858-0.242-2.464-2.42-2.442c-1.013,0-2.047,0.286-2.795,0.792l-0.439-1.298c0.88-0.55,2.178-0.924,3.521-0.924
			c3.256,0,4.048,2.222,4.048,4.334V24.949z M22.916,22.067c-2.112-0.044-4.511,0.33-4.511,2.398c0,1.276,0.837,1.849,1.805,1.849
			c1.408,0,2.311-0.88,2.618-1.782c0.066-0.22,0.088-0.44,0.088-0.616V22.067z"/>
	</g>
	<g>
		<path fill="#FFFFFF" d="M45.367,11.879h1.914v6.689h0.044c0.683-1.188,1.914-1.937,3.63-1.937c2.662,0,4.511,2.2,4.511,5.413
			c0,3.807-2.421,5.699-4.797,5.699c-1.54,0-2.772-0.594-3.586-1.98h-0.044l-0.109,1.738h-1.65c0.044-0.726,0.088-1.804,0.088-2.75
			V11.879z M47.281,23.233c0,0.242,0.022,0.484,0.088,0.704c0.353,1.342,1.496,2.266,2.904,2.266c2.046,0,3.234-1.65,3.234-4.092
			c0-2.134-1.1-3.961-3.19-3.961c-1.298,0-2.53,0.924-2.926,2.376c-0.066,0.242-0.11,0.506-0.11,0.814V23.233z"/>
	</g>
	<g>
		<path fill="#FFFFFF" d="M84.308,27.127c-0.506,0.242-1.628,0.616-3.059,0.616c-3.212,0-5.303-2.179-5.303-5.435
			c0-3.278,2.244-5.677,5.721-5.677c1.145,0,2.156,0.286,2.685,0.572l-0.44,1.474c-0.462-0.242-1.188-0.506-2.244-0.506
			c-2.442,0-3.763,1.826-3.763,4.026c0,2.464,1.585,3.982,3.697,3.982c1.1,0,1.826-0.264,2.376-0.506L84.308,27.127z"/>
	</g>
	<g>
		<path fill="#FFFFFF" d="M25.578,40.897v12.871c0,0.946,0.044,2.024,0.088,2.751H23.95l-0.088-1.849h-0.066
			c-0.572,1.188-1.848,2.091-3.586,2.091c-2.574,0-4.577-2.179-4.577-5.413c-0.021-3.542,2.2-5.699,4.774-5.699
			c1.65,0,2.729,0.77,3.213,1.606h0.044v-6.359H25.578z M23.664,50.205c0-0.242-0.021-0.572-0.088-0.814
			c-0.286-1.21-1.342-2.223-2.794-2.223c-2.003,0-3.191,1.76-3.191,4.093c0,2.156,1.078,3.938,3.146,3.938
			c1.299,0,2.486-0.88,2.839-2.311c0.066-0.264,0.088-0.528,0.088-0.836V50.205z"/>
	</g>
	<g>
		<path fill="#FFFFFF" d="M47.193,51.547c0.044,2.618,1.694,3.696,3.652,3.696c1.386,0,2.244-0.242,2.948-0.55l0.353,1.386
			c-0.683,0.309-1.87,0.683-3.564,0.683c-3.279,0-5.237-2.179-5.237-5.392c0-3.212,1.893-5.72,4.995-5.72
			c3.498,0,4.4,3.037,4.4,4.995c0,0.396-0.021,0.682-0.066,0.902H47.193z M52.869,50.161c0.021-1.21-0.506-3.125-2.684-3.125
			c-1.98,0-2.816,1.782-2.971,3.125H52.869z"/>
	</g>
	<g>
		<path fill="#FFFFFF" d="M77.63,56.52v-9.175h-1.475V45.87h1.475v-0.506c0-1.496,0.352-2.86,1.231-3.718
			c0.727-0.704,1.694-0.99,2.597-0.99c0.704,0,1.276,0.154,1.65,0.308l-0.265,1.496c-0.285-0.132-0.659-0.242-1.231-0.242
			c-1.65,0-2.068,1.43-2.068,3.081v0.572h2.574v1.474h-2.574v9.175H77.63z"/>
	</g>
	<g>
		<path fill="#FFFFFF" d="M25.568,83.976c0,2.465-0.507,3.938-1.519,4.885c-1.056,0.946-2.553,1.276-3.895,1.276
			c-1.276,0-2.685-0.309-3.543-0.88l0.484-1.497c0.704,0.463,1.805,0.858,3.125,0.858c1.979,0,3.432-1.034,3.432-3.74v-1.166h-0.044
			c-0.571,0.99-1.738,1.782-3.388,1.782c-2.641,0-4.533-2.244-4.533-5.193c0-3.608,2.354-5.633,4.819-5.633
			c1.848,0,2.838,0.946,3.322,1.826h0.044l0.065-1.605h1.717c-0.066,0.748-0.088,1.628-0.088,2.904V83.976z M23.631,79.091
			c0-0.33-0.022-0.616-0.11-0.858c-0.352-1.144-1.276-2.068-2.706-2.068c-1.849,0-3.169,1.562-3.169,4.027
			c0,2.09,1.079,3.828,3.146,3.828c1.211,0,2.289-0.748,2.685-1.98c0.11-0.33,0.154-0.704,0.154-1.034V79.091z"/>
	</g>
	<g>
		<path fill="#FFFFFF" d="M45.521,69.916h1.937v6.667h0.044c0.308-0.551,0.792-1.057,1.386-1.387c0.572-0.33,1.254-0.528,1.98-0.528
			c1.43,0,3.719,0.881,3.719,4.533v6.337h-1.937v-6.117c0-1.716-0.639-3.146-2.464-3.146c-1.254,0-2.222,0.88-2.596,1.914
			c-0.11,0.286-0.132,0.572-0.132,0.925v6.425h-1.937V69.916z"/>
	</g>
	<g>
		<path fill="#FFFFFF" d="M81.227,71.896c0,0.66-0.462,1.188-1.232,1.188c-0.704,0-1.166-0.528-1.166-1.188s0.484-1.21,1.21-1.21
			C80.742,70.686,81.227,71.214,81.227,71.896z M79.07,85.538V74.889h1.937v10.649H79.07z"/>
	</g>
</g>
</svg>
