<svg id="Layer_1" xmlns="http://www.w3.org/2000/svg" width="100" height="100" viewBox="0 0 100 100"><path fill="#FFF" d="M97.5 97.5h-95v-95h95v95zm-90-5h85v-85h-85v85z"/><path fill="#FFF" d="M36 36H4V4h32v32zM6 34h28V6H6v28z"/><path fill="#FFF" d="M66 36H34V4h32v32zm-30-2h28V6H36v28z"/><path fill="#FFF" d="M96 36H64V4h32v32zm-30-2h28V6H66v28zM36 66H4V34h32v32zM6 64h28V36H6v28z"/><path fill="#FFF" d="M66 66H34V34h32v32zm-30-2h28V36H36v28z"/><path fill="#FFF" d="M96 66H64V34h32v32zm-30-2h28V36H66v28zM36 96H4V64h32v32zM6 94h28V66H6v28z"/><path fill="#FFF" d="M66 96H34V64h32v32zm-30-2h28V66H36v28z"/><path fill="#FFF" d="M96 96H64V64h32v32zm-30-2h28V66H66v28zM24.786 24.949c0 .924.044 1.826.154 2.552h-1.738l-.154-1.342h-.065c-.595.836-1.738 1.584-3.257 1.584-2.156 0-3.256-1.519-3.256-3.059 0-2.574 2.288-3.982 6.402-3.96v-.22c0-.858-.242-2.464-2.42-2.442-1.013 0-2.047.286-2.795.792l-.439-1.298c.88-.55 2.178-.924 3.521-.924 3.256 0 4.048 2.222 4.048 4.334v3.983zm-1.87-2.882c-2.112-.044-4.511.33-4.511 2.398 0 1.276.837 1.849 1.805 1.849 1.408 0 2.311-.88 2.618-1.782.066-.22.088-.44.088-.616v-1.849z"/><g><path fill="#FFF" d="M45.367 11.879h1.914v6.689h.044c.683-1.188 1.914-1.937 3.63-1.937 2.662 0 4.511 2.2 4.511 5.413 0 3.807-2.421 5.699-4.797 5.699-1.54 0-2.772-.594-3.586-1.98h-.044l-.109 1.738h-1.65a49.3 49.3 0 0 0 .088-2.75V11.879zm1.914 11.354c0 .242.022.484.088.704.353 1.342 1.496 2.266 2.904 2.266 2.046 0 3.234-1.65 3.234-4.092 0-2.134-1.1-3.961-3.19-3.961-1.298 0-2.53.924-2.926 2.376-.066.242-.11.506-.11.814v1.893z"/></g><g><path fill="#FFF" d="M84.308 27.127c-.506.242-1.628.616-3.059.616-3.212 0-5.303-2.179-5.303-5.435 0-3.278 2.244-5.677 5.721-5.677 1.145 0 2.156.286 2.685.572l-.44 1.474c-.462-.242-1.188-.506-2.244-.506-2.442 0-3.763 1.826-3.763 4.026 0 2.464 1.585 3.982 3.697 3.982 1.1 0 1.826-.264 2.376-.506l.33 1.454z"/></g><g><path fill="#FFF" d="M25.578 40.897v12.871c0 .946.044 2.024.088 2.751H23.95l-.088-1.849h-.066c-.572 1.188-1.848 2.091-3.586 2.091-2.574 0-4.577-2.179-4.577-5.413-.021-3.542 2.2-5.699 4.774-5.699 1.65 0 2.729.77 3.213 1.606h.044v-6.359h1.914zm-1.914 9.308c0-.242-.021-.572-.088-.814-.286-1.21-1.342-2.223-2.794-2.223-2.003 0-3.191 1.76-3.191 4.093 0 2.156 1.078 3.938 3.146 3.938 1.299 0 2.486-.88 2.839-2.311.066-.264.088-.528.088-.836v-1.847z"/></g><g><path fill="#FFF" d="M47.193 51.547c.044 2.618 1.694 3.696 3.652 3.696 1.386 0 2.244-.242 2.948-.55l.353 1.386c-.683.309-1.87.683-3.564.683-3.279 0-5.237-2.179-5.237-5.392 0-3.212 1.893-5.72 4.995-5.72 3.498 0 4.4 3.037 4.4 4.995 0 .396-.021.682-.066.902h-7.481zm5.676-1.386c.021-1.21-.506-3.125-2.684-3.125-1.98 0-2.816 1.782-2.971 3.125h5.655z"/></g><g><path fill="#FFF" d="M77.63 56.52v-9.175h-1.475V45.87h1.475v-.506c0-1.496.352-2.86 1.231-3.718.727-.704 1.694-.99 2.597-.99.704 0 1.276.154 1.65.308l-.265 1.496c-.285-.132-.659-.242-1.231-.242-1.65 0-2.068 1.43-2.068 3.081v.572h2.574v1.474h-2.574v9.175H77.63z"/></g><g><path fill="#FFF" d="M25.568 83.976c0 2.465-.507 3.938-1.519 4.885-1.056.946-2.553 1.276-3.895 1.276-1.276 0-2.685-.309-3.543-.88l.484-1.497c.704.463 1.805.858 3.125.858 1.979 0 3.432-1.034 3.432-3.74v-1.166h-.044c-.571.99-1.738 1.782-3.388 1.782-2.641 0-4.533-2.244-4.533-5.193 0-3.608 2.354-5.633 4.819-5.633 1.848 0 2.838.946 3.322 1.826h.044l.065-1.605h1.717c-.066.748-.088 1.628-.088 2.904v6.183zm-1.937-4.885c0-.33-.022-.616-.11-.858-.352-1.144-1.276-2.068-2.706-2.068-1.849 0-3.169 1.562-3.169 4.027 0 2.09 1.079 3.828 3.146 3.828 1.211 0 2.289-.748 2.685-1.98.11-.33.154-.704.154-1.034v-1.915z"/></g><g><path fill="#FFF" d="M45.521 69.916h1.937v6.667h.044a3.64 3.64 0 0 1 1.386-1.387 3.97 3.97 0 0 1 1.98-.528c1.43 0 3.719.881 3.719 4.533v6.337H52.65v-6.117c0-1.716-.639-3.146-2.464-3.146-1.254 0-2.222.88-2.596 1.914-.11.286-.132.572-.132.925v6.425h-1.937V69.916z"/></g><g><path fill="#FFF" d="M81.227 71.896c0 .66-.462 1.188-1.232 1.188-.704 0-1.166-.528-1.166-1.188s.484-1.21 1.21-1.21c.703 0 1.188.528 1.188 1.21zM79.07 85.538V74.889h1.937v10.649H79.07z"/></g></svg>